HIERARCHY
ROOT Hips
{
	OFFSET -3.958830 18.904000 13.208200
	CHANNELS 6 Xposition Yposition Zposition Zrotation Yrotation Xrotation 
	JOINT LHipJoint
	{
		OFFSET 0.000000 0.000000 0.000000
		CHANNELS 3 Zrotation Yrotation Xrotation
		JOINT LeftUpLeg
		{
			OFFSET 1.800000 -1.400000 0.085000
			CHANNELS 3 Zrotation Yrotation Xrotation
			JOINT LeftLeg
			{
				OFFSET 2.215000 -6.000000 0.000000
				CHANNELS 3 Zrotation Yrotation Xrotation
				JOINT LeftFoot
				{
					OFFSET 2.500000 -6.900000 0.000000
					CHANNELS 3 Zrotation Yrotation Xrotation
					JOINT LeftToeBase
					{
						OFFSET 0.200000 -0.500000 1.950000
						CHANNELS 3 Zrotation Yrotation Xrotation
						End Site
						{
							OFFSET 0.000000 0.000000 0.000000
						}
					}
				}
			}
		}
	}
	JOINT RHipJoint
	{
		OFFSET 0.000000 0.000000 0.000000
		CHANNELS 3 Zrotation Yrotation Xrotation
		JOINT RightUpLeg
		{
			OFFSET -1.800000 -1.400000 0.085000
			CHANNELS 3 Zrotation Yrotation Xrotation
			JOINT RightLeg
			{
				OFFSET -2.215000 -6.000000 0.000000
				CHANNELS 3 Zrotation Yrotation Xrotation
				JOINT RightFoot
				{
					OFFSET -2.500000 -6.900000 0.000000
					CHANNELS 3 Zrotation Yrotation Xrotation
					JOINT RightToeBase
					{
						OFFSET -0.200000 -0.500000 1.950000
						CHANNELS 3 Zrotation Yrotation Xrotation
						End Site
						{
							OFFSET 0.000000 0.000000 0.000000
						}
					}
				}
			}
		}
	}
	JOINT LowerBack
	{
		OFFSET 0.000000 0.000000 0.000000
		CHANNELS 3 Zrotation Yrotation Xrotation
		JOINT Spine
		{
			OFFSET -0.087000 1.940000 -0.288900
			CHANNELS 3 Zrotation Yrotation Xrotation
			JOINT Spine1
			{
				OFFSET 0.000000 1.950000 0.060000
				CHANNELS 3 Zrotation Yrotation Xrotation
				JOINT Neck
				{
					OFFSET 0.000000 0.000000 0.000000
					CHANNELS 3 Zrotation Yrotation Xrotation
					JOINT Neck1
					{
						OFFSET 0.000000 1.600000 0.340000
						CHANNELS 3 Zrotation Yrotation Xrotation
						JOINT Head
						{
							OFFSET 0.000000 1.667000 -0.240000
							CHANNELS 3 Zrotation Yrotation Xrotation
							End Site
							{
								OFFSET 0.000000 0.000000 0.000000
							}
						}
					}
				}
				JOINT LeftShoulder
				{
					OFFSET 0.000000 0.000000 0.000000
					CHANNELS 3 Zrotation Yrotation Xrotation
					JOINT LeftArm
					{
						OFFSET 2.700000 1.550000 -0.730000
						CHANNELS 3 Zrotation Yrotation Xrotation
						JOINT LeftForeArm
						{
							OFFSET 5.450000 0.000000 0.000000
							CHANNELS 3 Zrotation Yrotation Xrotation
							JOINT LeftHand
							{
								OFFSET 3.450000 0.000000 0.000000
								CHANNELS 3 Zrotation Yrotation Xrotation
								JOINT LeftHandIndex1
								{
									OFFSET 0.750000 0.000000 0.000000
									CHANNELS 3 Zrotation Yrotation Xrotation
									End Site
									{
										OFFSET 0.000000 0.000000 0.000000
									}
								}
							}
						}
					}
				}
				JOINT RightShoulder
				{
					OFFSET 0.000000 0.000000 0.000000
					CHANNELS 3 Zrotation Yrotation Xrotation
					JOINT RightArm
					{
						OFFSET -2.700000 1.550000 -0.730000
						CHANNELS 3 Zrotation Yrotation Xrotation
						JOINT RightForeArm
						{
							OFFSET -5.450000 0.000000 0.000000
							CHANNELS 3 Zrotation Yrotation Xrotation
							JOINT RightHand
							{
								OFFSET -3.450000 0.000000 0.000000
								CHANNELS 3 Zrotation Yrotation Xrotation
								JOINT RightHandIndex1
								{
									OFFSET -0.750000 0.000000 0.000000
									CHANNELS 3 Zrotation Yrotation Xrotation
									End Site
									{
										OFFSET 0.000000 0.000000 0.000000
									}
								}
							}
						}
					}
				}
			}
		}
	}
}
MOTION
Frames: 5
Frame Time: 0.016667
-1.749560 17.674870 -6.427700 -146.237735 -39.794998 134.062902 -15.317343 11.700852 2.058352 25.219475 -0.938552 10.907980 -4.904209 6.873612 4.191636 0.500334 6.438510 2.513164 0.125700 -0.155240 0.025730 18.533179 -7.774109 5.803540 -32.561715 3.082153 -43.647377 82.628952 -53.306255 37.015438 -2.779425 -12.168391 0.433486 -0.184270 0.152090 0.209010 -4.786134 -1.359289 -9.761263 32.186478 -11.040746 24.834111 -6.553085 -6.407133 14.955961 1.230511 3.885686 -19.033916 5.173690 -15.229269 41.333897 10.533540 -19.214170 -9.506600 -4.468390 -31.999421 13.739476 -20.344426 6.203557 -14.329240 -132.749872 -78.875694 111.284774 -3.119601 2.808375 0.463670 -0.120460 0.069340 0.109910 0.398990 29.510761 12.954615 27.857351 8.567080 -20.141400 5.717077 81.465046 -5.240182 1.784899 -1.769748 -0.035790 0.084560 0.095620 0.008980 
-1.787150 17.666260 -6.398490 -150.528333 -29.807658 141.614504 -15.141284 11.389376 2.014240 25.417795 -1.184411 11.009924 -5.573122 6.995120 4.201092 0.514406 6.446650 2.550651 0.096060 -0.185680 -0.015240 18.736429 -7.818024 6.130909 -31.555332 2.807615 -49.545323 92.043050 -51.837067 30.743570 -2.785282 -11.929368 0.552124 -0.200730 0.190940 0.171180 -4.804215 -1.189829 -9.822450 33.042549 -12.045146 24.634312 -6.841531 -6.698074 14.609548 0.768016 4.022649 -19.513652 5.416886 -18.512875 41.715173 12.175210 -23.684200 -10.196940 -4.424374 -33.649313 14.256938 -21.637892 6.252899 -15.215092 -140.021049 -80.257265 121.274742 -2.982911 2.875068 0.463790 -0.132060 0.056890 0.138710 1.039263 31.422471 12.606557 26.404297 12.573639 -20.328966 4.298552 81.363955 -6.562162 1.760656 -1.735538 -0.058460 0.146330 0.091990 0.044260 
-1.859190 17.667070 -6.378180 -154.741560 -17.048811 150.023246 -15.055993 11.332123 2.116878 24.687032 -0.882407 10.809914 -7.285238 7.181486 3.937966 0.556480 6.342823 2.522026 0.155560 -0.094250 0.095900 18.826204 -7.581729 6.646505 -33.159388 2.416840 -52.465277 103.391344 -43.667012 20.857352 -2.802129 -11.360192 0.704364 -0.206190 0.022340 0.195480 -4.534924 -1.491971 -9.966605 33.450657 -11.608018 25.229278 -8.466034 -4.788766 11.276361 1.316731 5.832470 -21.130136 9.079168 -21.880534 44.589296 9.728670 -24.068270 -11.456240 -9.342775 -34.891081 14.894784 -16.128998 8.092973 -12.160730 -138.956579 -76.699925 118.095325 -3.001760 2.972232 0.515870 -0.204750 0.191060 0.094970 3.817759 32.659893 12.757033 26.239932 14.964779 -18.789442 8.730512 81.299664 -2.613755 1.793902 -1.765506 0.022910 0.081960 0.032690 0.012290 
-1.922280 17.685840 -6.360400 -156.097586 -7.484718 154.824828 -15.113723 11.367590 2.101068 24.590389 -0.914446 10.338504 -7.461531 7.246259 4.304472 0.501799 6.266478 2.497598 0.249040 0.020130 0.215390 18.792808 -7.111380 7.141025 -34.190496 1.463525 -51.703832 110.560891 -31.425274 12.284349 -2.698063 -10.284398 0.980734 -0.151910 -0.098860 0.176960 -4.249319 -1.997232 -10.072386 32.713319 -11.210540 26.476139 -7.342755 -4.043648 9.655223 1.621827 6.928021 -21.646521 11.650390 -24.704135 46.971209 10.314990 -24.252410 -15.833690 -10.514712 -34.881336 14.447138 -14.585544 5.431694 -10.489377 -134.208977 -75.382259 111.798520 -3.000102 2.853405 0.610260 -0.291770 0.298930 0.074210 4.349190 32.269418 12.833450 26.269426 15.096443 -17.559696 17.635905 83.660643 4.155435 1.822916 -1.824398 0.035800 0.103330 -0.021280 -0.032350 
-1.967930 17.655200 -6.378150 -157.682605 0.642919 159.162959 -14.972245 11.102250 2.059343 22.610779 -1.584466 10.814190 -7.383901 6.840467 3.466992 0.523386 6.032096 2.609750 0.236600 0.036620 0.089170 18.946389 -7.447651 7.195393 -31.636062 -2.376757 -54.770306 109.625096 -33.547040 13.003291 -2.681290 -10.425954 0.951940 -0.132110 -0.015140 0.154900 -4.692734 -1.183746 -9.942693 32.612273 -10.533241 24.060272 -6.242910 -4.024156 11.677708 0.784040 5.317846 -20.851235 7.966941 -25.077980 48.247428 13.387930 -28.525250 -15.130810 -6.275880 -34.821304 12.734436 -17.813778 -2.072331 -10.741454 -107.099828 -81.530971 86.686505 -3.413950 1.626131 0.510360 -0.277690 0.224490 0.131970 2.630824 33.012947 13.268675 25.994379 17.991534 -17.090128 25.887990 84.236986 9.306978 1.789254 -2.041079 0.058530 0.117460 -0.010570 0.062650 
